<svg width="21" height="20" viewBox="0 0 21 20" fill="none" xmlns="http://www.w3.org/2000/svg">
<path fill-rule="evenodd" clip-rule="evenodd" d="M12.5371 12.8717C10.2733 14.6406 6.95964 14.5014 4.86114 12.454C2.60952 10.2573 2.60952 6.69579 4.86114 4.49909C7.11275 2.30239 10.7633 2.30239 13.015 4.49909C15.1135 6.5464 15.2562 9.77926 13.4431 11.9878L17.8468 16.2842C18.097 16.5283 18.097 16.924 17.8468 17.1681C17.5967 17.4121 17.191 17.4121 16.9409 17.1681L12.5371 12.8717ZM5.76712 11.5702C4.01586 9.86161 4.01586 7.09151 5.76712 5.38297C7.51837 3.67443 10.3577 3.67443 12.109 5.38297C13.859 7.09026 13.8602 9.85754 12.1128 11.5664C12.1115 11.5676 12.1103 11.5689 12.109 11.5701C12.1077 11.5714 12.1064 11.5726 12.1051 11.5739C10.3536 13.2787 7.51709 13.2774 5.76712 11.5702Z" fill="black"/>
</svg>
